<?xml version="1.0" standalone="no"?>
<!DOCTYPE svg PUBLIC "-//W3C//DTD SVG 20010904//EN"
 "http://www.w3.org/TR/2001/REC-SVG-20010904/DTD/svg10.dtd">
<svg version="1.0" xmlns="http://www.w3.org/2000/svg"
 width="900.000000pt" height="700.000000pt" viewBox="0 0 900.000000 700.000000"
 preserveAspectRatio="xMidYMid meet">

<g transform="translate(0.000000,700.000000) scale(0.100000,-0.100000)"
fill="#000000" stroke="none">
<path d="M6618 6508 c2 -10 12 -18 20 -16 25 5 25 25 -1 30 -20 4 -23 1 -19
-14z"/>
<path d="M6793 6092 c-3 -13 -13 -22 -24 -22 -10 0 -20 -4 -23 -9 -3 -5 -15
-7 -26 -4 -11 3 -20 0 -20 -6 0 -6 5 -11 12 -11 8 0 9 -3 1 -11 -16 -16 -4
-54 25 -72 27 -16 27 -16 -25 -12 -36 2 -53 0 -53 -8 0 -8 -3 -8 -11 0 -9 9
-17 6 -32 -8 -12 -10 -23 -15 -26 -11 -12 18 -38 20 -38 4 0 -42 -3 -48 -13
-32 -8 12 -10 12 -10 1 0 -8 -8 -19 -17 -26 -15 -11 -22 -10 -44 6 -30 21 -44
25 -34 8 5 -7 -4 -9 -25 -6 -30 5 -31 5 -15 -13 9 -10 14 -23 11 -29 -4 -6 5
-13 19 -17 14 -3 25 -9 25 -13 -1 -13 -28 -41 -41 -41 -10 0 -10 -3 -2 -11 14
-14 6 -39 -12 -39 -7 0 -17 -6 -23 -13 -14 -16 1 -42 20 -34 9 3 15 -1 15 -9
0 -8 -5 -14 -11 -14 -5 0 -1 -7 10 -16 19 -15 19 -15 -2 -11 -18 4 -20 1 -16
-16 4 -15 2 -18 -8 -12 -8 5 -11 4 -6 -3 3 -6 17 -9 30 -6 15 2 26 -2 30 -11
3 -8 1 -15 -4 -15 -5 0 -7 -7 -3 -16 3 -8 12 -13 19 -10 15 6 15 5 19 -32 3
-27 15 -42 15 -18 0 10 5 14 11 11 6 -4 8 -9 5 -12 -7 -8 105 -65 144 -74 32
-7 31 -7 -16 -6 -28 0 -55 -3 -62 -6 -6 -4 -14 -3 -17 3 -5 8 -11 8 -20 0 -10
-8 -14 -7 -18 2 -4 10 -8 10 -16 -2 -7 -10 -11 -11 -11 -2 0 6 -7 12 -15 12
-8 0 -15 -5 -15 -12 0 -6 -7 -3 -15 8 -13 17 -14 17 -15 2 0 -10 -7 -18 -15
-18 -8 0 -18 0 -22 0 -5 0 -8 4 -8 10 0 5 -5 14 -11 20 -8 8 -13 7 -18 -5 -4
-11 -2 -14 7 -9 9 6 9 5 0 -8 -7 -8 -11 -17 -8 -19 2 -3 -5 -5 -15 -5 -11 0
-20 4 -20 9 0 4 -5 5 -12 1 -8 -5 -9 -2 -5 10 5 11 3 15 -5 10 -8 -5 -9 -2 -5
9 8 22 -7 22 -24 0 -8 -10 -9 -14 -2 -10 7 5 6 -4 -3 -23 -9 -16 -18 -30 -20
-30 -3 0 -3 4 1 9 3 6 -3 9 -14 8 -11 0 -19 -5 -18 -10 1 -5 -4 -12 -11 -14
-7 -3 -11 -1 -10 4 1 4 -10 21 -25 37 -14 16 -24 32 -22 37 3 4 1 10 -4 13 -5
3 -11 -1 -14 -8 -3 -8 -1 -17 6 -20 9 -3 8 -8 -3 -15 -11 -8 -12 -11 -2 -11 7
0 10 -5 7 -10 -4 -6 -16 -8 -28 -5 -12 4 -17 3 -12 -2 6 -4 16 -16 23 -25 12
-14 10 -16 -9 -11 -17 5 -20 3 -14 -8 7 -11 5 -11 -11 1 -10 8 -22 19 -26 25
-13 18 -22 -6 -10 -26 12 -19 11 -19 -8 -9 -19 10 -25 6 -20 -15 1 -5 -2 -7
-5 -3 -4 4 -16 3 -26 -3 -17 -9 -18 -7 -7 16 10 21 8 28 -8 41 -10 8 -13 13
-6 9 6 -3 12 -1 12 4 0 13 -2 13 -35 1 -14 -5 -24 -6 -21 -1 8 12 -34 22 -52
12 -11 -6 -12 -10 -3 -16 17 -10 -25 -39 -42 -29 -6 4 4 -8 24 -27 30 -29 34
-37 22 -47 -9 -9 -13 -10 -13 -1 0 8 -4 8 -15 -1 -10 -9 -15 -9 -15 -1 0 6 -6
11 -14 11 -9 0 -12 -7 -9 -22 4 -19 3 -20 -6 -8 -10 13 -11 13 -11 0 0 -13 -1
-13 -10 0 -5 8 -24 15 -44 15 -19 1 -32 -3 -30 -7 3 -5 10 -6 15 -3 5 4 9 1 9
-4 0 -6 -7 -11 -15 -11 -9 0 -15 -9 -15 -22 0 -17 -3 -19 -12 -10 -14 14 -52
16 -43 2 3 -5 13 -6 23 -3 13 4 13 2 -3 -10 -11 -8 -28 -13 -38 -11 -13 2 -17
-1 -13 -12 3 -9 2 -12 -5 -9 -14 9 -40 -15 -32 -29 3 -6 2 -8 -2 -3 -5 4 -17
-1 -28 -10 -19 -17 -20 -17 -10 2 6 11 8 26 5 34 -2 8 0 11 6 7 16 -10 1 37
-17 51 -11 8 -12 12 -3 13 6 0 12 4 12 10 0 5 -3 9 -7 8 -5 -1 -19 2 -32 6
-23 8 -24 9 -7 22 17 12 17 13 -7 19 -14 4 -36 3 -49 -1 -33 -11 -51 -11 -67
1 -11 7 -13 7 -7 -2 13 -23 -12 -14 -40 13 -21 22 -28 24 -35 13 -5 -8 -9 -9
-9 -3 0 6 -6 11 -12 11 -19 0 -16 -58 3 -70 15 -9 14 -13 -9 -34 -14 -12 -20
-23 -14 -23 6 0 9 -7 6 -15 -4 -8 -13 -15 -21 -15 -8 0 -11 -4 -8 -10 3 -5 -2
-10 -11 -10 -27 0 -10 -11 22 -14 21 -2 29 -9 29 -22 0 -12 -6 -18 -15 -16 -8
2 -11 0 -7 -5 5 -4 21 -8 35 -8 18 0 26 -5 24 -14 -2 -9 3 -11 14 -7 11 4 15
2 11 -8 -4 -11 5 -13 45 -11 50 2 50 2 23 -13 -16 -8 -35 -15 -44 -17 -9 -1
-15 -8 -13 -14 1 -6 -5 -11 -14 -11 -8 0 -12 5 -9 10 3 6 2 10 -3 10 -6 0 -13
-7 -16 -16 -3 -8 -2 -12 4 -9 6 3 10 2 10 -3 0 -24 -29 -19 -39 6 -5 15 -10
21 -10 15 -1 -7 -8 -13 -18 -13 -15 0 -15 -1 0 -18 11 -12 13 -22 7 -32 -5 -8
-10 -10 -10 -5 0 6 -5 3 -10 -5 -9 -13 -12 -13 -24 3 -14 18 -15 18 -25 0 -6
-11 -11 -13 -11 -5 0 7 -4 11 -9 7 -6 -3 -14 3 -20 12 -8 15 -12 16 -23 4 -8
-8 -8 -11 -1 -7 6 3 15 1 20 -6 11 -19 12 -38 2 -38 -6 0 -7 -5 -4 -10 4 -6
10 -8 15 -5 4 3 11 -2 14 -11 3 -8 2 -12 -4 -9 -6 3 -10 -1 -10 -9 0 -10 -6
-13 -15 -10 -8 4 -12 10 -9 15 7 12 -7 11 -26 -1 -16 -10 -15 -12 15 -28 19
-11 18 -11 -6 -12 -15 0 -29 -7 -33 -15 -3 -8 -1 -15 5 -15 6 0 7 -5 4 -10 -4
-7 -16 -1 -31 15 -23 24 -28 43 -11 37 5 -1 5 2 2 8 -5 8 -13 6 -25 -5 -16
-15 -18 -14 -24 7 -6 21 -7 22 -17 5 -6 -9 -15 -15 -20 -11 -5 3 -16 0 -24 -6
-8 -7 -15 -8 -15 -3 0 16 -49 9 -65 -10 -8 -9 -10 -13 -3 -7 7 6 16 4 24 -8
17 -22 18 -35 2 -26 -9 6 -9 3 1 -9 7 -9 10 -24 7 -33 -4 -12 -2 -15 9 -10 15
5 22 -9 8 -17 -5 -2 -3 -3 3 -1 6 1 17 -3 24 -9 10 -9 11 -9 5 3 -8 13 -6 13
8 1 9 -7 24 -10 33 -7 14 5 15 4 4 -9 -7 -8 -16 -12 -21 -9 -5 3 -9 0 -9 -5 0
-6 -3 -10 -7 -10 -29 5 -36 -2 -17 -16 12 -9 14 -14 6 -15 -8 0 -10 -5 -6 -12
4 -6 -3 -4 -15 4 -25 18 -61 13 -61 -8 0 -7 11 -16 25 -20 14 -3 22 -10 19
-15 -3 -6 -14 -7 -25 -4 -11 4 -19 2 -19 -5 0 -6 5 -8 10 -5 6 3 10 1 10 -4 0
-6 -4 -11 -10 -11 -5 0 -10 -10 -10 -22 0 -18 -2 -20 -9 -9 -5 8 -7 21 -4 29
5 11 1 13 -15 8 -18 -6 -20 -4 -17 16 4 21 2 21 -21 -7 -19 -24 -26 -27 -33
-16 -11 17 -27 8 -34 -18 -3 -14 -1 -18 9 -14 10 4 14 -3 14 -21 0 -20 4 -24
17 -19 12 5 14 3 8 -7 -6 -10 -1 -12 21 -7 27 5 28 4 9 -10 -11 -8 -19 -19
-17 -24 1 -5 -1 -8 -5 -8 -22 4 -43 -2 -43 -12 0 -5 4 -8 9 -4 5 3 12 2 15 -3
2 -4 -8 -13 -25 -19 -24 -9 -31 -8 -38 4 -6 11 -10 12 -15 4 -4 -6 -1 -11 6
-11 23 0 -15 -20 -42 -21 -17 -1 -19 -3 -7 -6 9 -2 17 -9 17 -14 0 -6 5 -7 10
-4 6 3 10 -1 10 -9 0 -8 5 -18 12 -22 7 -5 8 -3 3 7 -8 12 -6 12 8 0 18 -15
23 -26 7 -16 -5 3 -10 1 -10 -4 0 -6 -10 -11 -21 -11 -18 0 -19 -2 -9 -15 7
-8 17 -12 24 -8 8 4 8 3 0 -6 -9 -10 -17 -10 -34 -1 -12 6 -24 9 -28 6 -3 -3
0 -6 7 -6 7 0 9 -5 6 -10 -4 -6 -10 -8 -15 -5 -5 3 -11 1 -15 -5 -10 -16 21
-41 42 -34 14 5 15 4 4 -4 -8 -6 -16 -18 -17 -27 -3 -20 -14 -33 -14 -17 0 18
-21 14 -36 -5 -12 -15 -13 -16 -8 -2 3 10 0 20 -7 25 -8 4 -10 3 -5 -4 4 -7 3
-12 -3 -12 -19 0 1 -30 23 -36 24 -6 30 -42 7 -40 -8 1 -17 -7 -19 -18 -2 -11
0 -16 6 -12 6 4 10 -2 9 -13 -1 -15 -5 -17 -24 -10 -19 7 -23 5 -23 -11 0 -11
6 -20 14 -20 8 0 18 -5 22 -11 4 -7 -2 -9 -16 -7 -13 2 -25 -3 -27 -9 -3 -7 2
-13 11 -13 8 0 18 -5 22 -12 5 -8 0 -9 -15 -5 -20 5 -22 2 -19 -34 1 -21 5
-39 10 -39 4 0 5 -7 2 -15 -4 -8 -9 -13 -13 -11 -4 3 -7 -19 -7 -47 0 -29 -2
-79 -3 -112 l-3 -60 -14 50 c-8 28 -17 57 -19 65 -2 8 -4 15 -5 15 -1 0 -3 12
-4 27 -2 16 -13 37 -26 48 -13 11 -17 20 -10 20 7 0 1 11 -15 24 -20 17 -24
25 -14 29 10 4 9 6 -3 6 -10 1 -18 6 -18 12 0 5 4 8 9 4 5 -3 13 -1 16 5 4 6
3 10 -2 9 -4 -1 -18 -1 -30 0 -24 1 -32 26 -10 34 6 3 0 6 -15 6 -29 1 -45 16
-28 26 6 3 9 19 8 35 -1 16 -5 27 -9 24 -4 -2 -5 -12 -2 -22 3 -13 -2 -18 -16
-18 -12 0 -21 3 -21 7 0 4 -8 10 -17 12 -16 4 -16 5 -2 6 9 0 19 8 23 16 4 11
-1 15 -22 14 -15 -1 -37 2 -49 6 -21 7 -21 8 -6 32 13 20 14 26 3 36 -10 9
-11 9 -5 -2 6 -11 3 -13 -13 -9 -12 4 -26 0 -33 -8 -13 -16 -33 -8 -26 11 4 8
-3 11 -19 9 -30 -3 -40 11 -17 25 10 6 13 11 6 11 -7 0 -10 6 -7 14 7 19 -44
15 -56 -3 -6 -11 -12 -10 -31 0 -24 14 -49 20 -83 20 -17 0 -17 1 -1 13 13 9
16 20 12 38 -5 20 -12 24 -41 24 -19 -1 -34 -3 -34 -6 3 -50 -9 -61 -38 -33
-13 13 -19 14 -22 5 -2 -6 -11 -12 -20 -11 -10 0 -12 3 -5 5 7 3 9 12 6 20 -3
7 -10 11 -17 7 -19 -12 -40 -12 -55 0 -12 10 -14 9 -9 -4 5 -12 0 -14 -23 -11
-22 3 -27 8 -21 21 13 25 9 38 -17 63 -24 22 -56 35 -46 18 6 -10 -24 -23 -50
-22 -11 1 -14 -1 -7 -4 6 -3 12 -10 12 -15 0 -6 -4 -8 -9 -4 -5 3 -12 1 -16
-5 -3 -5 2 -10 12 -10 14 0 15 -2 4 -9 -11 -7 -10 -10 3 -18 13 -7 7 -9 -23
-9 -30 0 -41 4 -42 16 0 10 -3 9 -8 -5 -5 -11 -12 -20 -17 -20 -5 0 -14 -4
-21 -8 -8 -5 -11 -2 -8 11 4 23 -37 28 -55 7 -10 -12 -10 -15 0 -15 8 0 10 -3
6 -7 -11 -11 -35 -12 -42 -2 -9 15 -21 10 -27 -13 -5 -19 -8 -20 -23 -7 -10 8
-15 9 -11 3 6 -10 -25 -27 -37 -21 -1 1 -9 -3 -17 -10 -11 -9 -14 -6 -14 18 0
22 4 28 15 24 11 -4 10 -1 -2 8 -14 11 -15 16 -5 26 9 10 7 12 -13 9 -22 -3
-25 0 -23 27 2 25 0 27 -8 13 -11 -21 -39 -24 -39 -5 0 7 -3 8 -8 2 -8 -11
-42 -16 -40 -6 2 20 -4 29 -19 27 -23 -1 -34 -17 -27 -39 3 -10 -1 -19 -10
-23 -9 -3 -16 -12 -16 -20 0 -8 -8 -14 -17 -14 -17 -1 -16 -2 1 -15 16 -12 17
-17 6 -30 -11 -13 -9 -15 11 -15 19 0 21 -2 9 -10 -12 -8 -11 -10 8 -10 12 0
22 -4 22 -8 0 -4 12 -9 27 -10 35 -3 36 -5 7 -19 -13 -6 -22 -7 -18 -2 3 5 0
9 -5 9 -6 0 -11 -5 -11 -11 0 -5 -4 -7 -10 -4 -5 3 -10 -1 -10 -9 0 -9 -7 -16
-16 -16 -9 0 -12 5 -8 12 4 7 3 8 -5 4 -6 -4 -8 -12 -5 -18 10 -16 -17 -27
-42 -18 -27 11 -36 3 -25 -19 6 -11 4 -23 -5 -36 -8 -10 -14 -15 -15 -9 0 5
-4 0 -8 -10 -7 -19 -8 -19 -27 0 -20 20 -21 20 -60 3 -23 -10 -31 -18 -20 -18
12 -1 16 -6 12 -16 -4 -11 3 -17 25 -22 28 -5 32 -17 6 -18 -7 -1 -11 -6 -10
-13 2 -7 -4 -12 -12 -12 -8 0 -15 -9 -15 -21 0 -11 -5 -17 -10 -14 -6 3 -19 4
-29 0 -25 -8 -20 -41 5 -37 18 2 18 2 2 -11 -10 -8 -14 -17 -10 -21 4 -4 3 -7
-3 -6 -22 5 -45 -1 -45 -11 0 -5 4 -8 9 -5 5 3 12 -1 15 -10 9 -23 8 -27 -9
-20 -9 3 -15 0 -15 -9 0 -8 4 -15 9 -15 5 0 7 -9 4 -20 -3 -11 -9 -17 -14 -14
-5 3 -9 0 -9 -5 0 -6 5 -11 10 -11 6 0 10 -5 10 -11 0 -5 -4 -7 -10 -4 -6 4
-10 -9 -10 -32 l0 -38 -19 30 c-25 40 -56 64 -91 71 -19 4 -27 11 -23 20 3 8
-1 14 -11 14 -9 0 -16 -4 -16 -9 0 -6 -9 -9 -20 -8 -13 1 -19 6 -15 15 3 8 0
10 -6 6 -6 -4 -15 -1 -19 6 -6 9 -9 8 -14 -6 -3 -11 -21 -24 -40 -30 -20 -6
-33 -7 -30 -2 3 4 0 8 -5 8 -6 0 -11 8 -11 18 0 14 -2 14 -9 3 -8 -12 -12 -13
-25 -1 -9 7 -19 10 -23 6 -3 -3 -1 -6 5 -6 7 0 12 -7 12 -16 0 -9 -5 -13 -12
-9 -7 4 -3 -2 10 -14 22 -19 22 -20 2 -26 -11 -3 -20 -11 -20 -17 0 -5 -7 -7
-16 -4 -14 5 -15 4 -5 -7 9 -11 8 -17 -4 -27 -8 -7 -12 -16 -9 -21 3 -5 0 -9
-6 -9 -6 0 -8 -5 -4 -12 6 -10 3 -9 -8 0 -21 16 -59 12 -75 -8 -10 -13 -96
-15 -647 -18 -465 -2 -635 1 -634 9 2 6 -7 15 -20 20 -17 6 -27 4 -42 -11 -18
-18 -39 -19 -431 -20 -227 0 -415 -3 -418 -5 -2 -3 179 -6 402 -6 224 -1 413
-2 419 -3 7 -1 21 -9 30 -18 13 -13 23 -15 40 -9 13 5 22 14 20 20 -1 8 169
11 634 9 551 -3 637 -5 647 -18 16 -20 54 -24 75 -8 11 9 14 10 8 1 -4 -8 -2
-13 4 -13 6 0 9 -4 6 -9 -3 -5 1 -14 9 -21 12 -10 13 -16 4 -27 -10 -11 -9
-12 5 -7 9 3 16 1 16 -4 0 -6 9 -14 20 -17 20 -6 20 -7 -2 -26 -13 -12 -17
-18 -10 -14 7 4 12 0 12 -9 0 -9 -5 -16 -12 -16 -6 0 -8 -3 -5 -6 4 -4 14 -1
23 6 13 12 17 11 25 -1 7 -11 9 -11 9 4 0 9 5 17 11 17 5 0 8 4 5 8 -3 5 10 4
30 -2 19 -6 37 -19 40 -30 5 -14 8 -15 14 -6 4 7 13 10 19 6 6 -4 9 -2 6 6 -4
9 2 14 15 15 11 1 20 -2 20 -8 0 -5 7 -9 16 -9 10 0 14 6 11 14 -4 9 4 16 23
20 35 7 66 31 91 71 l19 30 0 -38 c0 -23 4 -36 10 -32 6 3 10 1 10 -4 0 -6 -4
-11 -10 -11 -5 0 -10 -5 -10 -11 0 -5 4 -8 9 -5 5 3 11 -3 14 -14 3 -11 1 -20
-4 -20 -5 0 -9 -7 -9 -15 0 -9 6 -12 17 -8 13 5 15 2 10 -11 -4 -10 -7 -20 -7
-22 0 -3 -5 -2 -10 1 -5 3 -10 1 -10 -4 0 -10 23 -16 45 -11 6 1 7 -2 3 -6 -4
-4 0 -13 10 -21 16 -13 16 -13 -2 -11 -25 4 -30 -29 -5 -37 10 -4 23 -3 29 0
5 3 10 -3 10 -14 0 -12 7 -21 15 -21 8 0 14 -5 12 -12 -1 -7 3 -12 10 -13 26
-1 22 -13 -6 -18 -22 -5 -29 -11 -25 -22 4 -10 0 -15 -12 -16 -11 0 -3 -8 20
-18 39 -17 40 -17 60 3 19 19 20 19 27 0 4 -10 8 -15 8 -10 1 6 7 1 15 -9 9
-13 11 -25 5 -36 -11 -22 -2 -30 25 -19 25 9 52 -2 42 -18 -3 -6 -1 -14 5 -18
8 -4 9 -3 5 4 -4 7 -1 12 8 12 9 0 16 -7 16 -16 0 -8 5 -12 10 -9 6 3 10 1 10
-4 0 -6 5 -11 11 -11 5 0 8 4 5 9 -4 5 5 4 18 -2 29 -14 28 -16 -7 -19 -15 -1
-27 -6 -27 -10 0 -4 -10 -8 -22 -8 -19 0 -20 -2 -8 -10 12 -8 10 -10 -9 -10
-20 0 -22 -2 -11 -15 11 -13 10 -18 -6 -30 -17 -13 -18 -14 -1 -15 9 0 17 -6
17 -14 0 -8 7 -17 16 -20 9 -4 13 -13 10 -23 -7 -22 4 -38 27 -39 15 -2 21 7
19 27 -2 10 32 5 40 -6 5 -6 8 -5 8 3 0 18 28 15 39 -5 8 -15 10 -13 8 12 -2
27 1 30 23 27 20 -3 22 -1 13 9 -10 10 -9 15 5 26 12 9 13 12 2 8 -11 -4 -15
2 -15 24 0 24 3 27 14 18 8 -7 15 -11 15 -10 1 1 11 0 23 -3 14 -4 20 -11 16
-18 -4 -6 1 -5 11 3 15 13 18 12 23 -7 6 -23 18 -28 27 -13 7 10 31 9 42 -2 4
-4 2 -7 -6 -7 -10 0 -10 -3 0 -15 18 -22 59 -16 54 8 -2 14 0 16 9 9 7 -6 16
-10 22 -10 5 0 12 -9 16 -19 6 -14 8 -14 8 -3 1 12 12 16 42 16 30 0 36 -2 23
-9 -13 -8 -14 -11 -3 -18 11 -7 10 -9 -4 -9 -10 0 -15 -5 -12 -10 4 -6 11 -8
16 -5 5 4 9 2 9 -4 0 -5 -6 -12 -12 -15 -7 -3 -4 -5 7 -4 26 1 56 -12 50 -22
-10 -17 22 -4 46 18 26 25 30 38 17 63 -6 13 -1 18 21 21 23 3 28 1 23 -11 -5
-13 -3 -14 9 -4 15 12 36 12 55 0 7 -4 14 0 17 7 3 8 1 17 -6 20 -7 2 -5 5 5
5 9 1 18 -5 20 -11 3 -9 9 -8 22 5 29 28 41 17 38 -33 0 -3 15 -5 34 -6 29 0
36 4 41 24 4 18 1 29 -12 38 -16 12 -16 13 1 13 34 0 59 6 83 20 19 10 25 11
31 0 12 -18 63 -22 56 -3 -3 8 0 14 7 14 7 0 4 5 -6 11 -23 14 -13 28 17 25
16 -2 23 1 19 9 -7 19 13 27 26 11 7 -8 21 -12 33 -8 16 4 19 2 13 -9 -6 -11
-5 -11 5 -2 11 10 10 16 -3 36 -15 24 -15 25 6 32 12 4 34 7 49 6 20 -1 26 3
22 13 -3 8 -13 17 -22 19 -15 4 -15 5 1 6 9 0 17 5 17 9 0 4 9 8 21 8 14 0 19
-5 16 -18 -3 -10 -2 -20 2 -22 4 -3 8 8 9 24 1 16 -2 32 -8 35 -17 10 -1 25
28 26 15 0 21 3 15 6 -22 8 -14 33 10 34 12 1 26 1 30 0 5 -1 6 3 2 9 -3 6
-11 8 -16 5 -5 -4 -9 -1 -9 4 0 6 8 11 18 12 12 0 13 2 3 6 -10 4 -6 12 14 29
16 13 22 24 15 24 -7 0 -3 9 10 20 13 11 24 32 26 48 1 15 3 27 4 27 1 0 3 7
5 15 2 8 11 38 19 65 l14 50 3 -60 c1 -33 3 -83 3 -112 0 -28 3 -50 7 -47 4 2
9 -3 13 -11 3 -8 2 -15 -2 -15 -5 0 -9 -18 -10 -39 -3 -36 -1 -39 19 -34 15 4
20 3 15 -5 -4 -7 -14 -12 -22 -12 -9 0 -14 -6 -11 -12 2 -7 14 -12 27 -10 14
2 20 0 16 -7 -4 -6 -14 -11 -22 -11 -8 0 -14 -9 -14 -20 0 -16 4 -18 23 -11
19 7 23 5 24 -10 1 -11 -3 -17 -9 -13 -6 4 -8 -1 -6 -12 2 -11 11 -19 19 -18
23 2 17 -34 -7 -40 -22 -6 -42 -36 -23 -36 6 0 7 -5 3 -12 -5 -7 -3 -8 5 -4 7
5 10 15 7 25 -5 14 -4 13 8 -1 15 -20 36 -24 36 -6 0 16 11 3 14 -17 1 -9 9
-21 17 -27 11 -8 10 -9 -4 -4 -21 7 -52 -18 -42 -34 4 -6 10 -8 15 -5 5 3 11
1 15 -5 3 -5 1 -10 -6 -10 -7 0 -10 -3 -7 -6 4 -3 16 0 28 6 17 9 25 9 34 -1
8 -9 8 -10 0 -6 -7 4 -17 0 -24 -8 -10 -13 -9 -15 9 -15 11 0 21 -5 21 -11 0
-5 6 -7 13 -3 8 5 8 2 -2 -9 -15 -19 -26 -23 -15 -5 4 7 3 8 -4 4 -7 -4 -12
-14 -12 -22 0 -8 -4 -12 -10 -9 -5 3 -10 2 -10 -4 0 -5 -8 -12 -17 -14 -12 -3
-10 -5 7 -6 27 -1 65 -21 42 -21 -7 0 -10 -5 -6 -11 5 -8 9 -7 15 4 7 12 14
13 38 4 17 -6 27 -15 25 -19 -3 -5 -10 -6 -15 -3 -5 4 -9 1 -9 -4 0 -10 21
-16 42 -12 5 0 7 -3 5 -8 -1 -5 7 -16 18 -24 19 -14 18 -15 -9 -10 -22 5 -27
3 -21 -7 6 -10 4 -12 -8 -7 -13 5 -17 1 -17 -19 0 -18 -4 -25 -14 -21 -10 4
-12 0 -9 -14 7 -26 23 -35 34 -18 7 11 14 8 33 -16 23 -28 25 -28 21 -7 -3 20
-1 22 17 16 16 -5 20 -3 15 8 -3 8 -1 21 4 29 7 11 9 9 9 -8 0 -13 5 -23 10
-23 6 0 10 -5 10 -11 0 -5 -4 -7 -10 -4 -5 3 -10 1 -10 -5 0 -7 8 -9 19 -5 11
3 22 2 25 -4 3 -5 -5 -12 -19 -15 -14 -4 -25 -13 -25 -20 0 -21 36 -26 61 -8
12 8 19 10 15 4 -4 -7 -2 -12 6 -12 8 -1 6 -6 -6 -15 -19 -14 -12 -21 17 -16
4 0 7 -4 7 -10 0 -5 4 -8 9 -5 5 3 14 -1 21 -9 11 -13 10 -14 -4 -9 -9 3 -24
0 -33 -7 -14 -12 -16 -12 -8 1 6 12 5 12 -5 3 -7 -6 -18 -10 -24 -9 -6 2 -8 1
-3 -1 14 -8 7 -22 -8 -17 -11 5 -13 2 -9 -10 3 -9 0 -24 -7 -33 -10 -12 -10
-15 -1 -9 16 9 15 -4 -2 -26 -8 -12 -17 -14 -24 -8 -7 6 -5 2 3 -7 16 -19 65
-26 65 -10 0 5 7 4 15 -3 8 -6 19 -9 24 -6 5 4 14 -2 20 -11 10 -17 11 -16 17
5 6 21 8 22 24 7 12 -11 20 -13 25 -5 3 6 3 9 -2 8 -17 -6 -12 13 11 37 15 16
27 22 31 15 3 -5 2 -10 -4 -10 -6 0 -8 -7 -5 -15 4 -8 18 -15 33 -15 24 -1 25
-1 6 -12 -30 -16 -31 -18 -15 -28 19 -12 33 -13 26 -1 -3 5 1 11 9 15 9 3 15
0 15 -10 0 -8 4 -12 10 -9 6 3 7 -1 4 -9 -3 -9 -10 -14 -14 -11 -5 3 -11 1
-15 -5 -3 -5 -2 -10 4 -10 10 0 9 -19 -2 -38 -5 -7 -14 -9 -20 -6 -7 4 -7 1 1
-7 11 -12 15 -11 23 4 6 9 14 15 20 12 5 -4 9 0 9 7 0 8 5 6 11 -5 10 -18 11
-18 25 0 12 16 15 16 24 3 5 -8 10 -10 10 -5 0 6 5 3 10 -5 6 -10 4 -20 -7
-32 -15 -17 -15 -18 0 -18 10 0 17 -6 18 -12 0 -7 5 -1 10 14 10 25 39 30 39
6 0 -5 -4 -6 -10 -3 -6 3 -7 -1 -4 -9 3 -9 10 -16 16 -16 5 0 6 4 3 10 -3 5 1
10 9 10 9 0 15 -5 13 -11 -1 -6 5 -13 14 -14 9 -2 28 -9 44 -17 27 -15 27 -15
-23 -13 -40 2 -49 0 -45 -11 4 -10 0 -12 -11 -8 -11 4 -16 2 -14 -7 2 -9 -6
-14 -24 -14 -14 0 -30 -4 -35 -8 -4 -5 -1 -7 7 -5 9 2 15 -4 15 -16 0 -13 -8
-20 -29 -22 -32 -3 -49 -14 -22 -14 9 0 14 -5 11 -10 -3 -5 0 -10 8 -10 8 0
17 -7 21 -15 3 -8 0 -15 -6 -15 -6 0 0 -11 14 -23 23 -21 24 -25 9 -34 -19
-12 -22 -70 -3 -70 6 0 12 5 12 11 0 6 4 5 9 -3 7 -11 14 -9 35 13 28 27 53
36 40 14 -6 -10 -4 -10 7 -3 16 12 32 12 71 1 15 -4 36 -5 48 -1 20 6 20 8 4
20 -16 12 -16 13 7 21 13 4 27 7 32 6 4 -1 7 3 7 8 0 6 -6 10 -12 10 -9 1 -8
5 3 13 18 14 33 61 17 51 -6 -4 -8 -1 -6 7 3 8 1 23 -5 34 -10 19 -9 19 10 2
11 -9 23 -14 28 -10 4 5 5 3 2 -3 -8 -14 18 -38 32 -29 7 3 8 0 5 -9 -4 -11 0
-14 13 -12 10 2 27 -3 38 -11 16 -12 16 -14 3 -10 -10 3 -20 2 -23 -3 -9 -14
29 -12 43 2 9 9 12 7 12 -10 0 -13 6 -22 15 -22 8 0 15 -5 15 -11 0 -5 -4 -8
-9 -4 -5 3 -12 2 -15 -3 -2 -4 11 -8 30 -7 20 0 39 7 44 15 9 13 10 13 10 0 0
-13 1 -13 11 0 9 12 10 11 6 -7 -3 -16 0 -23 9 -23 8 0 14 5 14 11 0 8 5 8 15
-1 11 -9 15 -9 15 -1 0 9 4 8 13 -1 12 -10 8 -18 -22 -47 -20 -19 -30 -31 -24
-27 17 10 59 -19 42 -29 -9 -6 -8 -10 3 -16 18 -10 60 0 52 12 -3 5 7 4 21 -1
33 -12 35 -12 35 1 0 5 -6 7 -12 4 -7 -4 -4 1 6 9 16 13 18 20 8 41 -11 23
-10 25 7 16 10 -6 22 -7 26 -3 3 4 6 2 5 -3 -5 -21 1 -25 20 -15 19 10 20 10
8 -9 -12 -20 -3 -44 10 -26 4 6 16 17 26 25 16 12 18 12 11 1 -6 -11 -3 -13
14 -8 19 5 21 3 9 -11 -7 -9 -17 -21 -23 -25 -5 -5 0 -6 12 -2 12 3 24 1 28
-5 3 -5 0 -10 -7 -10 -10 0 -9 -3 2 -11 11 -7 12 -12 3 -15 -7 -3 -9 -12 -6
-20 3 -7 9 -11 14 -8 5 3 7 9 4 13 -2 5 8 21 22 37 15 16 26 33 25 37 -1 5 3
7 10 4 7 -2 12 -9 11 -14 -1 -5 7 -10 18 -10 11 -1 17 2 14 8 -4 5 -4 9 -1 9
2 0 11 -14 20 -30 9 -19 10 -28 3 -23 -7 4 -6 0 2 -10 17 -22 32 -22 24 0 -4
11 -3 14 5 9 8 -5 10 -1 5 10 -4 12 -3 15 5 10 7 -4 12 -3 12 1 0 5 9 9 20 9
10 0 17 -2 15 -5 -3 -2 1 -11 8 -19 9 -13 9 -14 0 -8 -9 5 -11 2 -7 -9 5 -12
10 -13 20 -4 7 6 12 14 11 17 -2 8 7 12 28 12 8 0 15 -8 15 -17 1 -16 2 -16
15 1 8 11 15 14 15 8 0 -7 7 -12 15 -12 8 0 15 6 15 13 0 8 4 7 11 -3 8 -12
12 -12 16 -2 4 9 8 10 18 2 9 -8 15 -8 20 0 3 6 11 7 17 3 7 -3 34 -6 62 -6
47 1 48 1 16 -6 -40 -9 -150 -66 -151 -78 -1 -17 -9 -15 -9 2 0 25 -12 11 -15
-17 -4 -37 -4 -38 -19 -32 -7 3 -16 -2 -19 -10 -4 -9 -2 -16 3 -16 5 0 7 -7 4
-15 -4 -9 -15 -13 -30 -11 -13 3 -27 0 -30 -6 -5 -7 -2 -8 6 -3 10 6 12 3 8
-12 -4 -17 -2 -20 16 -16 21 4 21 4 2 -11 -11 -9 -15 -16 -10 -16 6 0 11 -6
11 -14 0 -8 -6 -12 -15 -9 -19 8 -34 -18 -20 -34 6 -7 16 -13 23 -13 18 0 26
-25 12 -39 -8 -8 -8 -11 2 -11 13 0 40 -28 41 -41 0 -4 -11 -10 -25 -13 -14
-4 -23 -11 -19 -17 3 -6 -2 -19 -11 -29 -16 -18 -15 -18 15 -13 21 3 30 1 25
-6 -10 -17 4 -13 34 8 22 16 29 17 44 6 9 -7 17 -18 17 -26 0 -11 2 -11 10 1
10 16 13 10 13 -32 0 -16 26 -14 38 4 3 4 14 -1 26 -11 15 -14 23 -17 32 -8 8
8 11 8 11 0 0 -8 17 -10 53 -8 52 4 52 4 25 -12 -29 -18 -41 -56 -25 -72 8 -8
7 -11 -1 -11 -7 0 -12 -5 -12 -11 0 -6 9 -9 20 -6 11 3 23 1 26 -4 3 -5 13 -9
23 -9 11 0 21 -9 24 -22 5 -17 9 -19 20 -10 8 7 18 8 22 4 5 -4 5 -1 1 6 -9
14 24 52 45 52 6 0 9 6 6 14 -3 7 0 19 6 25 8 8 8 11 0 11 -6 0 -13 9 -16 20
-3 11 -9 19 -14 18 -4 -2 -9 2 -11 7 -3 12 76 27 91 18 6 -3 7 -1 4 4 -4 6 0
16 8 23 8 7 15 8 15 3 0 -8 21 -9 50 -4 3 1 -2 6 -10 11 -13 9 -12 12 4 25 11
8 17 15 13 15 -4 0 1 9 10 20 15 17 18 18 26 5 4 -9 12 -13 18 -10 5 4 9 0 9
-7 1 -8 7 -5 16 7 12 16 17 17 23 7 6 -10 10 -9 14 7 3 12 1 21 -4 21 -5 0 -9
7 -9 15 0 8 -3 14 -7 14 -32 -5 -42 2 -34 24 6 14 16 21 27 19 17 -2 17 -1 4
10 -24 20 -24 48 -1 48 27 0 35 16 13 26 -9 4 -20 7 -23 6 -4 -1 -6 17 -5 39
2 44 -7 58 -41 59 -5 0 1 8 12 16 19 16 19 16 -7 12 -27 -5 -49 17 -26 24 7 3
8 10 4 17 -7 11 -10 11 -17 0 -6 -11 -9 -10 -14 3 -4 10 -13 14 -21 11 -9 -3
-14 0 -12 8 2 8 -7 14 -21 15 -13 1 -26 6 -30 12 -3 6 -29 15 -56 21 -50 10
-50 10 22 7 46 -2 74 1 77 8 3 7 5 6 5 -1 1 -7 13 -13 27 -13 14 0 23 4 19 10
-3 5 -1 10 4 10 6 0 11 -4 11 -10 0 -5 8 -10 18 -10 13 0 14 2 4 9 -11 7 -10
9 3 14 9 4 18 1 21 -8 4 -8 10 -15 16 -15 5 0 7 4 3 9 -3 6 4 15 16 21 15 8
19 9 15 1 -4 -6 -1 -11 6 -11 9 0 10 -2 2 -8 -9 -5 -8 -11 2 -20 8 -7 14 -8
14 -2 0 5 6 10 14 10 8 0 18 4 21 10 3 6 -1 7 -10 4 -11 -5 -14 -2 -9 9 3 9
12 13 20 10 8 -3 14 0 14 7 0 6 5 8 11 4 8 -4 7 -9 -2 -15 -10 -6 -10 -9 -2
-9 7 0 10 -6 7 -14 -3 -8 -1 -17 5 -21 6 -3 9 0 6 8 -3 7 5 19 18 26 14 7 24
18 23 25 0 6 3 11 9 11 5 0 9 -3 8 -8 -4 -10 15 -9 22 2 10 18 42 8 37 -11 -2
-10 1 -18 7 -18 7 0 9 6 5 12 -6 10 -4 10 7 0 16 -15 46 -16 55 0 4 7 3 8 -4
4 -19 -11 -14 5 6 21 9 8 11 12 5 8 -7 -3 -13 0 -13 7 0 7 11 18 25 24 20 10
25 9 30 -5 8 -27 34 -22 29 5 -3 18 -1 22 11 17 10 -3 24 3 36 16 24 26 24 26
26 1 1 -13 -3 -18 -10 -14 -7 3 -4 -1 6 -9 9 -8 17 -19 17 -26 0 -6 9 -11 19
-11 31 0 51 -11 51 -29 0 -10 3 -12 8 -5 4 6 21 16 37 21 l30 11 -27 7 c-24 6
-25 9 -15 26 6 10 19 19 27 19 12 0 12 2 2 9 -8 4 -13 12 -13 17 1 5 -3 9 -8
9 -5 0 -13 3 -17 7 -4 5 -16 8 -27 8 -11 0 -18 3 -14 6 3 3 22 6 41 6 20 0 33
4 30 9 -3 5 4 9 16 9 12 0 18 -4 15 -10 -3 -6 1 -7 10 -4 9 4 14 12 11 19 -3
8 2 16 10 19 8 3 17 0 19 -7 7 -15 55 -19 55 -3 0 6 5 4 11 -4 8 -12 9 -10 4
8 -4 15 -2 22 7 22 7 1 2 7 -12 15 -25 14 -25 14 -2 15 12 0 22 6 22 13 1 6 8
1 16 -13 8 -14 13 -18 11 -9 -4 12 2 14 27 11 l31 -4 -23 17 c-12 9 -20 21
-16 26 4 7 10 7 18 0 6 -5 18 -6 25 -2 11 7 9 11 -5 20 -17 11 -16 12 8 8 15
-2 25 0 22 4 -3 5 0 9 6 9 6 0 8 5 5 10 -3 6 -1 10 6 10 7 0 23 10 36 22 l24
22 -16 -36 c-10 -26 -12 -39 -4 -44 8 -4 7 -9 -2 -15 -11 -7 -10 -9 5 -9 12 0
16 -5 12 -15 -3 -9 0 -15 9 -15 8 0 15 -9 15 -20 0 -14 7 -20 23 -22 12 0 29
-2 37 -2 8 -1 15 -9 15 -18 0 -10 6 -23 13 -30 9 -9 12 -9 12 1 0 7 6 11 15 8
8 -4 17 -1 21 5 5 7 2 8 -6 3 -9 -5 -11 -4 -6 3 4 7 22 10 41 7 28 -3 33 -1
28 12 -4 10 -2 14 4 10 6 -4 16 0 23 8 10 12 15 12 32 -5 15 -14 29 -17 52
-13 40 8 41 9 26 28 -7 8 -9 15 -4 15 5 1 -3 7 -18 16 -23 12 -26 18 -18 38 5
13 6 34 3 45 -3 12 -2 21 3 20 21 -3 24 2 14 22 -10 17 -14 18 -28 7 -12 -10
-14 -10 -8 0 4 7 1 15 -8 18 -9 3 -16 13 -16 21 0 9 -6 13 -15 9 -8 -3 -20 1
-27 8 -7 7 -20 13 -28 14 -8 1 -26 3 -40 5 -14 2 -29 1 -35 -2 -18 -10 -35
-10 -35 0 0 5 7 9 16 9 9 0 30 16 47 35 21 24 36 33 49 29 20 -6 25 11 7 22
-19 11 13 24 33 13 10 -5 19 -6 19 -2 4 29 3 39 -5 51 -6 9 -4 11 8 6 12 -5
16 0 17 22 1 16 3 22 6 13 2 -9 15 -19 28 -21 14 -3 22 -2 20 3 -3 4 -1 10 5
14 5 3 10 1 10 -6 0 -10 3 -10 11 -2 9 9 6 19 -8 40 -10 15 -17 37 -15 48 2
17 9 20 40 18 20 -2 30 0 22 4 -18 8 -44 33 -36 34 3 1 11 3 16 4 6 1 13 3 18
4 4 1 0 6 -8 11 -12 8 -12 10 5 10 12 0 16 3 9 8 -7 4 -8 15 -3 27 8 20 8 19
14 -2 4 -12 13 -19 20 -17 7 3 20 -4 28 -16 10 -15 17 -18 22 -10 4 6 17 9 29
6 23 -6 66 24 66 44 0 6 10 6 25 0 18 -7 24 -6 22 3 -1 7 5 11 13 9 10 -1 9 2
-4 13 -11 8 -26 15 -34 15 -7 0 -11 4 -7 9 3 5 -2 16 -10 24 -8 9 -15 21 -15
27 0 7 -8 10 -20 7 -11 -3 -22 -1 -25 3 -8 13 -57 1 -79 -18 -18 -17 -18 -16
-2 16 9 17 13 32 9 32 -5 1 3 10 16 21 17 14 21 23 13 27 -6 5 -8 13 -3 21 5
7 13 11 19 7 5 -3 13 2 16 11 4 10 1 20 -9 25 -21 13 -20 39 3 32 15 -5 15 -4
2 8 -18 16 -23 58 -6 52 21 -8 85 -10 80 -3 -6 11 7 40 16 34 4 -3 10 2 14 10
6 16 -9 29 -23 21 -5 -3 -11 1 -15 9 -7 18 -72 20 -80 3 -4 -7 -4 -3 -2 10 2
12 -1 22 -7 23 -7 0 -3 4 8 9 17 7 17 9 3 9 -10 1 -18 6 -18 11 0 10 13 14 40
11 8 -1 0 8 -18 20 -32 21 -32 22 -15 41 9 11 25 17 35 15 15 -4 16 -2 8 14
-8 15 -7 17 5 13 26 -10 16 4 -13 19 -16 8 -37 11 -48 7 -15 -6 -19 -3 -20 16
-1 14 2 21 9 17 6 -3 7 -1 3 5 -4 7 -13 12 -21 12 -7 0 -15 7 -19 15 -3 10 1
15 14 15 13 0 18 6 17 20 -1 23 -42 29 -50 8 -3 -8 -6 -6 -6 5 -1 9 0 19 2 22
1 2 -7 11 -18 19 -11 9 -14 16 -7 16 6 0 12 7 12 16 0 9 5 12 13 8 6 -4 9 -3
4 1 -10 11 -48 14 -41 3 3 -4 0 -8 -5 -8 -6 0 -11 7 -11 16 0 8 -4 13 -9 9 -5
-3 -12 -1 -16 5 -3 5 1 10 10 10 9 0 13 5 9 11 -3 6 -14 9 -23 6 -19 -5 -39
13 -34 30 2 6 -4 10 -13 9 -9 0 -19 5 -22 13 -3 9 0 11 8 6 8 -5 11 -4 7 3 -4
5 -16 8 -28 5 -15 -4 -22 0 -26 16 -3 11 -10 18 -15 15 -5 -3 -18 2 -29 12
-10 9 -19 14 -19 10 0 -3 -13 0 -30 9 -16 8 -42 16 -57 16 -25 1 -25 2 7 8 19
4 45 13 58 20 12 6 22 9 22 5 0 -4 9 1 19 10 11 10 24 15 29 12 5 -3 12 4 15
15 4 16 11 20 26 16 12 -3 24 0 28 5 4 7 1 8 -7 3 -8 -5 -11 -3 -8 6 3 8 13
13 22 13 9 -1 15 3 13 9 -5 17 15 35 34 30 9 -3 20 0 23 6 4 6 0 11 -9 11 -9
0 -13 5 -10 10 4 6 11 8 16 5 5 -4 9 1 9 9 0 9 5 16 11 16 5 0 8 -4 5 -8 -7
-11 31 -8 41 3 5 4 2 5 -4 1 -8 -4 -13 -1 -13 8 0 9 -6 16 -12 16 -8 1 -6 6 5
14 10 8 18 17 18 20 -3 20 1 39 6 29 8 -22 49 -16 50 7 1 14 -4 20 -17 20 -13
0 -17 5 -14 15 4 8 12 15 19 15 8 0 17 5 21 12 4 6 3 8 -3 5 -7 -4 -10 3 -9
17 1 19 5 22 20 16 11 -4 32 -1 48 7 29 15 39 29 13 19 -12 -4 -13 -2 -5 13 8
16 7 18 -8 14 -10 -2 -26 4 -35 15 -17 19 -17 20 15 41 18 12 26 21 18 20 -27
-3 -40 1 -40 11 0 6 8 10 18 11 14 0 14 2 -3 9 -11 5 -15 9 -8 9 6 1 9 11 7
24 -2 12 -2 16 2 10 8 -18 73 -16 80 2 4 8 10 12 15 9 14 -8 29 5 23 21 -4 8
-10 13 -14 10 -9 -6 -22 23 -16 34 5 7 -59 5 -80 -3 -17 -6 -12 36 6 52 13 12
13 13 -2 8 -23 -7 -24 19 -3 32 10 5 13 15 9 25 -3 9 -11 14 -16 11 -6 -4 -14
0 -19 7 -5 8 -3 16 3 21 8 4 4 13 -13 27 -13 11 -21 20 -16 21 4 0 0 15 -9 33
-16 31 -16 32 2 15 22 -19 71 -31 79 -18 3 4 14 6 25 3 12 -3 20 0 20 7 0 6 7
18 15 27 8 8 13 19 10 24 -4 5 0 9 7 9 8 0 23 7 34 15 13 11 14 14 4 13 -8 -2
-14 2 -13 9 2 9 -4 10 -22 3 -15 -6 -25 -6 -25 0 0 20 -43 50 -66 44 -12 -3
-25 0 -29 6 -5 8 -12 5 -22 -10 -8 -12 -21 -19 -28 -16 -7 2 -16 -5 -20 -17
-6 -21 -6 -22 -14 -2 -5 12 -4 23 3 27 7 5 3 8 -9 8 -17 0 -17 2 -5 10 8 5 12
10 8 11 -5 1 -12 3 -18 4 -5 1 -13 3 -16 4 -8 1 18 26 36 34 8 4 -2 6 -22 4
-31 -2 -38 1 -40 18 -2 11 5 33 15 48 14 21 17 31 8 40 -8 8 -11 8 -11 -2 0
-7 -5 -9 -10 -6 -6 4 -8 10 -5 14 2 5 -6 6 -20 3 -13 -2 -26 -12 -28 -21 -3
-9 -5 -3 -6 13 -1 22 -5 27 -17 22 -12 -5 -14 -3 -8 6 8 12 9 22 5 51 0 4 -9
3 -19 -2 -20 -11 -52 2 -33 13 18 11 13 28 -7 22 -13 -4 -28 5 -49 29 -17 19
-38 35 -47 35 -9 0 -16 4 -16 9 0 10 17 10 35 0 6 -3 21 -4 35 -2 14 2 32 4
40 5 8 1 21 7 28 14 7 7 19 11 27 8 9 -4 15 0 15 9 0 8 7 18 16 21 9 3 12 11
8 18 -6 10 -4 10 8 0 14 -11 18 -10 28 7 10 20 7 25 -14 22 -5 -1 -6 8 -3 20
3 11 2 32 -3 45 -8 20 -5 26 18 38 15 9 23 15 18 16 -5 0 -3 7 4 15 15 19 14
20 -26 28 -23 4 -37 1 -52 -13 -17 -17 -22 -17 -32 -5 -7 8 -17 12 -23 8 -6
-4 -8 0 -4 10 5 13 0 15 -28 12 -19 -3 -37 0 -41 7 -5 7 -3 8 6 3 8 -5 11 -4
6 3 -4 6 -13 9 -21 5 -9 -3 -15 1 -15 8 0 10 -3 10 -12 1 -7 -7 -13 -20 -13
-30 0 -9 -7 -17 -15 -18 -8 0 -25 -2 -37 -2 -16 -2 -23 -8 -23 -22 0 -11 -7
-20 -15 -20 -9 0 -12 -6 -9 -15 4 -10 0 -15 -12 -15 -15 0 -16 -2 -5 -9 9 -6
10 -11 2 -15 -8 -5 -6 -18 4 -44 l16 -36 -24 22 c-13 12 -29 22 -36 22 -7 0
-9 5 -6 10 3 6 1 10 -5 10 -6 0 -9 4 -6 9 3 4 -7 6 -22 4 -24 -4 -25 -3 -8 8
14 9 16 13 5 20 -7 4 -19 3 -25 -2 -8 -7 -14 -7 -18 0 -4 5 4 17 16 26 l23 17
-31 -4 c-25 -3 -31 -1 -27 11 2 9 -3 5 -11 -9 -8 -14 -15 -19 -16 -12 0 6 -10
12 -22 12 -23 1 -23 1 2 15 14 8 19 14 12 15 -9 0 -11 7 -7 23 5 17 4 19 -4 7
-6 -8 -11 -10 -11 -4 0 16 -48 12 -55 -3 -2 -7 -11 -10 -19 -7 -8 3 -13 11
-10 19 3 7 -2 15 -11 19 -9 3 -13 2 -10 -4 3 -6 -3 -10 -15 -10 -12 0 -19 4
-16 9 3 5 -10 9 -30 9 -19 0 -38 3 -41 6 -4 3 3 6 14 6 11 0 23 3 27 8 4 4 12
7 17 7 5 0 9 4 8 9 0 5 5 13 13 17 10 7 10 9 -2 9 -8 0 -21 9 -27 19 -10 17
-9 20 15 26 l27 7 -30 11 c-16 5 -33 15 -37 21 -5 7 -8 5 -8 -5 0 -18 -20 -29
-51 -29 -10 0 -19 -5 -19 -11 0 -7 -8 -18 -17 -26 -10 -8 -13 -12 -6 -9 7 4
11 -1 10 -14 -2 -25 -2 -25 -26 1 -12 13 -26 19 -36 16 -12 -5 -14 -1 -11 17
5 27 -21 32 -29 5 -5 -14 -10 -15 -30 -5 -14 6 -25 17 -25 24 0 7 6 10 13 7 6
-4 4 0 -5 8 -20 16 -25 32 -6 21 7 -4 8 -3 4 4 -9 16 -39 15 -55 0 -11 -10
-13 -10 -7 0 4 6 2 12 -5 12 -6 0 -9 -8 -7 -18 5 -19 -27 -29 -37 -11 -8 12
-26 12 -22 0 1 -5 -2 -8 -8 -8 -5 1 -9 7 -9 13 1 7 -9 18 -23 25 -13 7 -21 19
-18 26 3 8 0 11 -6 8 -6 -4 -8 -13 -5 -21 3 -8 0 -14 -7 -14 -8 0 -8 -3 2 -9
9 -6 10 -11 2 -15 -6 -4 -11 -2 -11 4 0 7 -6 10 -14 7 -8 -3 -17 1 -20 10 -5
11 -2 14 9 9 9 -3 13 -2 10 4 -3 6 -13 10 -21 10 -8 0 -14 5 -14 10 0 6 -6 5
-14 -2 -10 -9 -11 -15 -2 -20 8 -6 7 -8 -2 -8 -7 0 -10 -5 -6 -11 4 -8 0 -7
-15 1 -12 6 -19 15 -16 21 4 5 2 9 -3 9 -6 0 -12 -7 -16 -15 -3 -9 -12 -12
-21 -8 -13 5 -14 7 -3 14 10 7 9 9 -4 9 -10 0 -18 -4 -18 -10 0 -5 -5 -10 -11
-10 -5 0 -7 5 -4 10 3 6 -5 10 -19 10 -13 0 -27 -6 -29 -12 -3 -8 -6 -8 -6 -2
-1 7 -26 10 -73 8 -73 -3 -73 -3 -23 7 27 6 53 15 56 21 4 6 17 11 30 12 14 1
23 7 21 15 -2 8 3 11 12 8 8 -3 17 1 21 11 5 13 8 14 14 3 7 -11 10 -11 17 0
4 7 3 14 -4 17 -23 7 -1 29 26 24 25 -4 26 -3 8 10 -13 10 -15 17 -8 22 7 4
12 4 12 0 0 -3 6 -2 13 4 8 7 12 28 11 51 -1 22 1 40 5 39 3 -1 14 2 23 6 22
10 14 26 -13 26 -23 0 -23 28 1 48 13 11 13 12 -4 10 -11 -2 -21 5 -27 20 -8
21 2 28 34 23 4 0 7 6 7 14 0 8 4 15 9 15 5 0 7 9 4 21 -4 16 -8 17 -14 7 -6
-10 -11 -9 -23 7 -9 12 -15 15 -16 7 0 -7 -4 -11 -9 -7 -6 3 -14 -1 -18 -10
-8 -13 -11 -12 -26 5 -9 11 -14 20 -10 20 4 0 -2 7 -13 15 -16 13 -17 16 -4
25 8 5 13 10 10 11 -29 5 -50 4 -50 -4 0 -5 -7 -4 -15 3 -8 7 -12 17 -8 23 3
5 2 7 -4 4 -15 -9 -95 6 -93 18 1 6 6 9 12 7 5 -1 12 7 15 18 3 11 10 20 16
20 8 0 8 3 0 11 -6 6 -9 18 -6 25 3 8 0 14 -6 14 -21 0 -54 38 -45 52 4 7 4
10 -1 6 -4 -4 -14 -3 -22 4 -11 9 -15 7 -20 -10z m-1923 -1512 c0 -5 -2 -10
-4 -10 -3 0 -8 5 -11 10 -3 6 -1 10 4 10 6 0 11 -4 11 -10z m-136 -245 c-4 -8
-8 -15 -10 -15 -2 0 -4 7 -4 15 0 8 4 15 10 15 5 0 7 -7 4 -15z m0 -1680 c3
-8 1 -15 -4 -15 -6 0 -10 7 -10 15 0 8 2 15 4 15 2 0 6 -7 10 -15z m136 -245
c0 -5 -5 -10 -11 -10 -5 0 -7 5 -4 10 3 6 8 10 11 10 2 0 4 -4 4 -10z"/>
<path d="M7414 5405 c-18 -14 -18 -14 5 -10 28 5 36 11 23 19 -5 3 -18 -1 -28
-9z"/>
<path d="M5815 5390 c-3 -5 -1 -10 4 -10 6 0 11 5 11 10 0 6 -2 10 -4 10 -3 0
-8 -4 -11 -10z"/>
<path d="M8485 5370 c-3 -5 -2 -10 4 -10 5 0 13 5 16 10 3 6 2 10 -4 10 -5 0
-13 -4 -16 -10z"/>
<path d="M7567 5349 c7 -7 15 -10 18 -7 3 3 -2 9 -12 12 -14 6 -15 5 -6 -5z"/>
<path d="M5695 5260 c-3 -5 1 -10 10 -10 9 0 13 5 10 10 -3 6 -8 10 -10 10 -2
0 -7 -4 -10 -10z"/>
<path d="M5105 4890 c-3 -5 -1 -10 4 -10 6 0 11 5 11 10 0 6 -2 10 -4 10 -3 0
-8 -4 -11 -10z"/>
<path d="M8596 4302 c-2 -4 -1 -14 4 -22 7 -11 9 -9 7 8 -1 24 -3 26 -11 14z"/>
<path d="M4580 4219 c0 -5 5 -7 10 -4 6 3 10 8 10 11 0 2 -4 4 -10 4 -5 0 -10
-5 -10 -11z"/>
<path d="M4525 4030 c-3 -5 1 -10 10 -10 9 0 13 5 10 10 -3 6 -8 10 -10 10 -2
0 -7 -4 -10 -10z"/>
<path d="M2730 3850 c-9 -6 -10 -10 -3 -10 6 0 15 5 18 10 8 12 4 12 -15 0z"/>
<path d="M2720 3146 c0 -2 7 -7 16 -10 8 -3 12 -2 9 4 -6 10 -25 14 -25 6z"/>
<path d="M4525 2960 c4 -6 11 -8 16 -5 14 9 11 15 -7 15 -8 0 -12 -5 -9 -10z"/>
<path d="M4580 2770 c0 -5 5 -10 11 -10 5 0 7 5 4 10 -3 6 -8 10 -11 10 -2 0
-4 -4 -4 -10z"/>
<path d="M8597 2705 c-4 -8 -3 -16 1 -19 4 -3 9 4 9 15 2 23 -3 25 -10 4z"/>
<path d="M5105 2100 c3 -5 8 -10 11 -10 2 0 4 5 4 10 0 6 -5 10 -11 10 -5 0
-7 -4 -4 -10z"/>
<path d="M5695 1730 c4 -6 11 -8 16 -5 14 9 11 15 -7 15 -8 0 -12 -5 -9 -10z"/>
<path d="M7565 1640 c-3 -6 1 -7 9 -4 18 7 21 14 7 14 -6 0 -13 -4 -16 -10z"/>
<path d="M8485 1620 c3 -5 11 -10 16 -10 6 0 7 5 4 10 -3 6 -11 10 -16 10 -6
0 -7 -4 -4 -10z"/>
<path d="M5815 1600 c3 -5 8 -10 11 -10 2 0 4 5 4 10 0 6 -5 10 -11 10 -5 0
-7 -4 -4 -10z"/>
<path d="M7414 1585 c10 -8 23 -12 28 -9 13 8 5 14 -23 19 -23 4 -23 4 -5 -10z"/>
<path d="M6618 482 c-4 -15 -1 -18 19 -14 26 5 26 25 1 30 -8 2 -18 -6 -20
-16z"/>
</g>
</svg>
